<svg style="fill:red" version="1.1"
             xmlns="http://www.w3.org/2000/svg" xmlns:xlink="http://www.w3.org/1999/xlink" xmlns:a="http://ns.adobe.com/AdobeSVGViewerExtensions/3.0/"
             x="0px" y="0px" width="1024px" height="1024px" viewBox="-31.873 29.659 1024 1024"
             enable-background="new -31.873 29.659 1024 1024" xml:space="preserve">
<path fill-rule="evenodd" clip-rule="evenodd" fill="" stroke="" stroke-miterlimit="10" d="M999.127,161.027
     M475.127,939.027 M40.5,899.659c0,0-40-355.999-40-441.999s82-92,82-92s176-10,220-8s22,38,58,36s134-174,102-236s-2-138,70-154
    s134,30,180,110s30,208,30,208s104,0,146,0s70,48,86,94s-26,154-28,148s2,30,16,74s-18,64-20,64s16,38,0,80
    c-16,41.999-38,49.999-38,51.999s22,22-22,82s-98,68-98,68s-384,0-386,0s-46-22-56-20s-36,20-36,20h-174
    C72.5,983.659,40.5,899.659,40.5,899.659z M514.127,273.395c0-128,28-192,38-202s94,4,124,122s-14,195.631-14,195.631
    s304,4.369,226,2.369s54-20,34,86s-88,64-64,68s54,66,42,104s-52,36-46,37s44-3,32,59s-68,56-68,60s44,16,26,54s-70,56-70,56
    s-306,0-354,0s-54-28-54-28v-430C408.127,405.395,514.127,401.395,514.127,273.395z M274.313,915.198v-484h-198c0,0-26-5.999-28,18
    c-2,24,40,442,40,442s20,24,34,24S274.313,915.198,274.313,915.198z"/>
        </svg>
